<svg xmlns="http://www.w3.org/2000/svg" viewBox="0 0 480.83 480.83"><defs><style>.cls-1{fill:#fff;}</style></defs><title>closewhite</title><g id="Layer_2" data-name="Layer 2"><g id="Layer_1-2" data-name="Layer 1"><path class="cls-1" d="M392.81,477.52,3.31,88a11.39,11.39,0,0,1,0-16L60.42,3.31a11.39,11.39,0,0,1,16,0L466,392.81a11.37,11.37,0,0,1,0,16.05l-57.11,68.66A11.37,11.37,0,0,1,392.81,477.52Z"/><path class="cls-1" d="M3.31,398.58,392.81,9.08a11.39,11.39,0,0,1,16.05,0L477.52,66.2a11.37,11.37,0,0,1,0,16L88,471.75a11.39,11.39,0,0,1-16,0L3.31,414.64A11.4,11.4,0,0,1,3.31,398.58Z"/></g></g></svg>