<svg xmlns="http://www.w3.org/2000/svg" viewBox="0 0 768.11 319.19"><defs><style>.cls-1{fill:#f8fcfa;}</style></defs><title>daniela-white</title><g id="Layer_2" data-name="Layer 2"><g id="Layer_1-2" data-name="Layer 1"><path class="cls-1" d="M116.67,85.61l3.07,0q32.4-.6,50.22,55.95a136.4,136.4,0,0,1,1.87,18.42q.85,47.1-39.75,96.09l-15.28,4.9q-3.21-7.77-3.27-10.71l1.54,0-1.6-3.05q-2.27-40.45-2.77-67.65l-.08-4.61a1.35,1.35,0,0,1,1.5-1.56,1.35,1.35,0,0,0-1.56-1.51A45,45,0,0,1,111.9,161q-1.92-20.69-2.18-35.31l-.06-3.08a1.36,1.36,0,0,1,1.51-1.56l-1.59-3-.12-6.14Q110,85.74,116.67,85.61Zm4.75,7.6,0,1.54a44.83,44.83,0,0,0,1.73,10.73q-1,28.29-1.27,98.4,2,25,2.35,44.6Q162.07,215,161.1,161.66l-.28-15.37q-5.26-28-33.23-51.65Z"/><path class="cls-1" d="M233.74,85l1.53,0q10.56-.2,20.13,91.86l1.12,61.54q-.7,20-5.78,20.09l-1.53,0c-2.05,0-3.11-1.48-3.16-4.55q-.27-14.37.3-67.71l-1.74-10.73,1.54,0a11,11,0,0,1-1.62-4.59,210.91,210.91,0,0,0-3.72-35.28l-10.76.19q-6.68.13-22.47,115.77L203,254.73l-3.07.05a11,11,0,0,0-1.62-4.58,969.72,969.72,0,0,1,26.5-148.12Q230,85.09,233.74,85Zm.45,24.59q-4.32,16.19-4.28,18.52l9.22-.17q0-2.94-3.41-18.38Z"/><path class="cls-1" d="M324.67,69.51l3.07-.05q3.3,12.24,3.44,19.92,2.77,152.19-4.9,152.33a11,11,0,0,1-4.58,1.62q-5.83-4.5-19.74-70.41-2.59,0-6.56-22.94l-1.54,0,.42,23.05a1.36,1.36,0,0,1-1.51,1.56,1.36,1.36,0,0,0,1.57,1.51q-1.21,18.13-1.81,69.27l-3,1.6-6.14.11q.93-33.11.63-49.27L282,90.28q.76-9.24,4.44-9.31,6.41-.12,23.06,84.13,9.78,30.56,9.95,39.78l1.53,0,.63-133.74Z"/><path class="cls-1" d="M366,87.2q35.64.89,36.91.87l1.59,3,.09,4.61-18.44.34q4.66,86.87,4.87,98.29.25,14.16-2.14,50.83l10.75-.2c2.05.28,3.1,1.28,3.13,3l.06,3.07c0,2.05-1.48,3.11-4.56,3.16q-27,2-32.24,2.13l-1.59-3.05,0-1.53q1.45-4.65,9.14-4.78l4.61-.09-1.52-83q-.4-22.11-2.63-59.9c1-1.72,1.46-4.28,1.39-7.72q-13.86-1.6-13.91-4.35l0-1.54Q361.4,87.29,366,87.2Z"/><path class="cls-1" d="M435.87,81.32l10.75-.2q16.9-.32,17,4.3.08,4.14-19.86,6.51l.39,21.51q.06,3.07,15.45,4.33l.09,4.61q-16.9.32-16.71,11.07-1.14,21.62-1,112.3,1.56,1.5,23.1,2.65l.06,3.07q.06,3.08-3,3.13l-26.12.48q-2.21,0-4.7-4.53-.81-128.43,1.8-153.81a11.4,11.4,0,0,1-1.62-4.58Q433.33,81.36,435.87,81.32Z"/><path class="cls-1" d="M497.82,71l4.61-.08q3.4,18.45,3.6,29.14l1.61,87.58a1.37,1.37,0,0,1-1.51,1.57,1.36,1.36,0,0,0,1.56,1.51l-1.39,7.71.62,33.87,12.29-.22a1.36,1.36,0,0,1,1.57,1.51l3-1.6q7.71,1.8,7.77,4.47l0,1.54q-1.46,4.64-9.14,4.78l-18.44.33q-7.68.15-8.44-41.41l-.31-16.9a1.36,1.36,0,0,1,1.51-1.57,1.36,1.36,0,0,0-1.57-1.51c0-2.05.46-3.08,1.48-3.1q-2.23-38.65-2.66-61.44l-.67-36.88C493.89,74.11,495.37,71,497.82,71Z"/><path class="cls-1" d="M592.44,78.45l1.54,0q10.56-.18,20.13,91.87l1.12,61.53q-.71,20-5.78,20.09l-1.54,0c-2,0-3.1-1.48-3.15-4.56q-.27-14.35.29-67.71L603.32,169l1.54,0a11,11,0,0,1-1.62-4.58,211,211,0,0,0-3.72-35.29l-10.76.2q-6.68.12-22.48,115.76l-4.55,3.16-3.07.05a11,11,0,0,0-1.62-4.58A970.94,970.94,0,0,1,583.53,95.52Q588.71,78.53,592.44,78.45Zm.45,24.59q-4.3,16.18-4.27,18.52l9.22-.17q-.06-2.92-3.41-18.38Z"/><path class="cls-1" d="M766.23,295.45c-.09,3,1.57,1.91,1.88,2.37C767.64,292.75,765.8,295.58,766.23,295.45Z"/><polygon class="cls-1" points="761.51 245.44 762.21 246.31 760.4 238.96 761.51 245.44"/><path class="cls-1" d="M760.69,198.6c-2.78,4.48.77,17-.09,25.33l-.63,1.38,2.37,3.73C761.79,218.9,760,205.76,760.69,198.6Z"/><path class="cls-1" d="M766.41,173.52c-1.09,1.56-1.06-5.38-.24,5.83a10.25,10.25,0,0,1,.26-1.06C766.39,177.28,766.37,175.89,766.41,173.52Z"/><path class="cls-1" d="M766.43,178.29c.17,4.93.87-3.25,0,0Z"/><path class="cls-1" d="M765.37,155.52l1.11,6.48c.64-1.37.68-7.15,1.19-5C767,150.33,766.38,151.72,765.37,155.52Z"/><path class="cls-1" d="M763.18,149.4l.48,3.36C763.92,152.17,764,151.27,763.18,149.4Z"/><path class="cls-1" d="M764.68,159.88l-1-7.12c-.44,1-1.37,1.07.38,3.27C763.18,155.46,764,156.86,764.68,159.88Z"/><path class="cls-1" d="M764.31,163.93c-.55,3.66-.85,8.37-2,1.87C763,178.22,764.94,176.36,764.31,163.93Z"/><path class="cls-1" d="M757.69,196.27l-.75,4.88,1,4.2C757.47,203.25,758.58,196,757.69,196.27Z"/><path class="cls-1" d="M766.11,115c-.61-.4-1.58,2.21-2.34,2.71l.78,4.79C764.92,120.05,765.22,115.37,766.11,115Z"/><path class="cls-1" d="M763.77,117.74l-1.18-7.16C762.59,117,763.1,118.16,763.77,117.74Z"/><polygon class="cls-1" points="759.99 148.3 762.39 160.06 759.92 146.03 759.99 148.3"/><polygon class="cls-1" points="765.69 87.6 767.17 91.65 764.91 84.44 765.69 87.6"/><path class="cls-1" d="M765.11,69.42c1.22,3,1.89-4.17,2.67-1a66.26,66.26,0,0,0-2.35-12.92A46.22,46.22,0,0,1,765.11,69.42Z"/><path class="cls-1" d="M764,49.15c.31,2,.85,4.09,1.42,6.36A36.84,36.84,0,0,0,764,49.15Z"/><path class="cls-1" d="M762.67,98.34c.36-.56,1.3-1.65,1.63-5.68l-1.66,2.86C762.65,96.38,762.66,97.35,762.67,98.34Z"/><path class="cls-1" d="M762.59,95.62l0-.1c0-3.07,0-5.2,0-6.11C762.62,90.2,762.61,92.06,762.59,95.62Z"/><path class="cls-1" d="M762.67,99.06v-.72C762.51,98.62,762.45,98.78,762.67,99.06Z"/><path class="cls-1" d="M761.19,129.45c-1-4.2-2.22-13-3.52-4.44C758.9,128,759.64,123.13,761.19,129.45Z"/><path class="cls-1" d="M760.6,102.6l-.25,7.63c.45-.15,1.08-1.54,1.59.54Z"/><polygon class="cls-1" points="759.99 98.88 760.6 102.6 760.69 99.77 759.99 98.88"/><path class="cls-1" d="M762.65,62.24a57.88,57.88,0,0,1-1.13-11c-.25,4.37-.35,8.89-.27,13.17C761.8,65.05,762.79,66.92,762.65,62.24Z"/><path class="cls-1" d="M762.47,78.46c0-.22-.08-.51-.11-.73C762.22,78.19,762.18,78.55,762.47,78.46Z"/><path class="cls-1" d="M759.06,2.73c.27.09.47.2.74.3.18-.11.32-.2.53-.31Z"/><path class="cls-1" d="M760.94,65.2a17.23,17.23,0,0,0,.75,7.09c-.22-2.45-.38-5-.44-7.83C761,64.19,760.84,64.14,760.94,65.2Z"/><path class="cls-1" d="M763,38c-.33,1.71-.6,3.65-.84,5.69C762.68,42,763.46,38.58,763,38Z"/><path class="cls-1" d="M762.81,76.62c0,.16.06.31.09.49C763.24,76,763.07,76.16,762.81,76.62Z"/><path class="cls-1" d="M762.81,76.62a32.66,32.66,0,0,0-1.12-4.33c.17,2,.39,3.84.67,5.44A5.7,5.7,0,0,1,762.81,76.62Z"/><path class="cls-1" d="M738,14.09c.3-.67,2-1.35,4.64-1.8a38.4,38.4,0,0,1,9.12-.38,38.48,38.48,0,0,1-.5,4.08c.64,3,2.2,3.23,3.93,1a20.75,20.75,0,0,0,2.64-5.29,63.92,63.92,0,0,0,2.35-8.51L759.8,3a6.13,6.13,0,0,1-2.74,1.09c-1.8.39-5,.85-10.68,1.42,1.65.38,6.84.77,10.33,1.25a34.72,34.72,0,0,1-.85,5.65c-.32,1-.68.89-1.09-.83-.08-1-.15-1.9-.21-2.6-9.34.59-7-.67-12.63-1.33,1.21.47.65.91-.64,1.34s-3.34.85-5.3,1.31c-3.44.9-7.06,1.91-6,3.34l8.75-1.18c0,.23-.75.53-1.22.83S736.93,13.9,738,14.09Z"/><path class="cls-1" d="M760.59,25.41l.14,2.37.12,1.55c.12-1.34.29-4.37.59-7s.71-6,1.25-10.37c-.87-7.92-1.46-9.26-2-9.3a1.17,1.17,0,0,0-.4.11h.3l.22,24.36Z"/><path class="cls-1" d="M761.12,43.25c-1.77-2.39-2.64-9.82-4.42-5.23.28,9.1,1.55,6.35,2.4,11.78-.69-14.68,1,4.2,1.82-6.43.35,2.88.48,5.47.6,7.92.16-2.65.37-5.2.65-7.61l-.1.34v.07h0c-.21.63-.33.85-.22.13a2.36,2.36,0,0,1,0-.31,1.7,1.7,0,0,1-.66-.65c.27-4.26.43-.68.66.65.08.05.17.16.26.18s0,0,0-.06l-1.22-14.69C760.67,32.45,760.79,36.34,761.12,43.25Z"/><path class="cls-1" d="M753.82,117.23c.14-.46.27-.44.39-.47C754,115.81,753.83,115.45,753.82,117.23Z"/><path class="cls-1" d="M754.75,111.16a12.28,12.28,0,0,1,.85,5.43c-.46,3-.82,0-1.39.17.5,2.08,1.37,7.31,2.09.72l-.25-1c.48-5.93,2.49-13.58,2.75-12.55A19.94,19.94,0,0,0,754.75,111.16Z"/><path class="cls-1" d="M757.49,76.79l-1.07-12.23L755,70.82l.89-.33C755.71,77.46,756.78,75.94,757.49,76.79Z"/><path class="cls-1" d="M757.5,1.9c1.41-.63,2.88-1.27,4.42-1.9Q754.39,1.42,748,2.82Z"/><polygon class="cls-1" points="732.83 2.57 733.39 0.98 729.21 2.01 732.83 2.57"/><path class="cls-1" d="M22.21,200.61l.52,3.59A30.54,30.54,0,0,0,22.21,200.61Z"/><path class="cls-1" d="M21.84,174.55l-.79-.63C21.5,175.12,21.83,175.61,21.84,174.55Z"/><path class="cls-1" d="M341.86,9.9c-5.27-1.39-11.17-3.57-10.51-1.8L333,9.8A35.87,35.87,0,0,1,341.86,9.9Z"/><path class="cls-1" d="M74.28,25.15l1.55.5,3.51-1.73Z"/><path class="cls-1" d="M70.71,32.4l-6.93-1A53.93,53.93,0,0,0,70.71,32.4Z"/><path class="cls-1" d="M46.05,299.67l4.17-1.84C43.65,298,46.56,298.79,46.05,299.67Z"/><path class="cls-1" d="M569.8,6.19a91.24,91.24,0,0,0-11.31-.84C564,6.25,568.38,7.66,569.8,6.19Z"/><path class="cls-1" d="M3.61,190.69c.36,2.2.73,3.13,1.11,3.06C4.38,191.49,4,190.21,3.61,190.69Z"/><path class="cls-1" d="M545.42,5.59c.8.16,1.59.24,2.4.37a88.07,88.07,0,0,1,10.67-.61C554.45,4.68,549.83,4.31,545.42,5.59Z"/><path class="cls-1" d="M562.26,291.67c.37.07.83.1,1.17.19C563.54,291.62,563,291.62,562.26,291.67Z"/><path class="cls-1" d="M713,306.43c-1.48.14-3.9.18-6.18.25A37.87,37.87,0,0,0,713,306.43Z"/><path class="cls-1" d="M668.76,3c3.38-.17.54-.2,0,0Z"/><path class="cls-1" d="M685.31,9.55c-.72.2-1.26.46-1.33.86A2.21,2.21,0,0,1,685.31,9.55Z"/><path class="cls-1" d="M512,17h-.29C512.71,17.33,512.53,17.27,512,17Z"/><path class="cls-1" d="M673.86,3.68c-1.27-.19-2.74-.34-4.33-.44C670.23,3.37,671.55,3.51,673.86,3.68Z"/><path class="cls-1" d="M673.16,2.87l3,.12C676.54,2.69,676.15,2.51,673.16,2.87Z"/><path class="cls-1" d="M664.06,3.16c1.93-.06,3.74,0,5.47.08-.66-.1-.94-.19-.77-.26Z"/><path class="cls-1" d="M285.77,301.37c.23.05.48.08.73.15C289.89,300.74,288.4,300.88,285.77,301.37Z"/><path class="cls-1" d="M254.31,29.52c.16,0,.24-.07.39-.09l-.5-.05Z"/><path class="cls-1" d="M242.21,31c5.12-2.25,8.07-2,12-1.65l-4.11-4.93Z"/><path class="cls-1" d="M23.85,263l1.41-8.55c2.75,10.23,2,17.69,4,9.65C23.85,263,28.15,231,22.7,229.92l1-5.63c0,1.61.3,1.86.27,3.45,2.4-11-4.07-8-3.56-22.12.33-4.91,1.06-8.34,1.76-5l-1.54-10.9c0-3.18,1-2.42,1,.74l-.74-16.65.16.12c-.89-2.36-2.31-7.72-2.92-10.34.7-4.25.62,2.11,1.28,1l-1.49-9.2c1.34-3.78,2.84,3.84,2.76,10.21C26,156.89,19.17,158,22,139.32l.85,8.7c3-5.67,1.74-12.45,3.48-22.33-1,2.35-4.48,19.8-6,9.82a33.27,33.27,0,0,0-.71-11.94c1.94-.08,1.36-5.35,1.13-11.95l2.57.41c-.87-7.12-2.16-6.54-3.39-10.71.11-8,2.06-9.65,3.69-11.55.18-12.74-3,8.85-3.77-6.21.79-10.61-.4-18-2.16-30.67.75-7.43,1.59,1.27,2.27-1.4L17.78,45c0-1.61.66-1.1,1-.84-.45-2.75-1.09-3-1.72-3.14s-1.26-.78-1.66-3.67c-1.25-1.1-.66-3.59.14-5.58,2.39.5,4.68,1.07,6.53,1.3a10.24,10.24,0,0,0,2.65,0L25,33l.56-.07c.4,0,.81-.11,1.2-.18a19.83,19.83,0,0,0,2.33-.58c2.66.68-1.26,1.59-.43,2.57C43.43,32.35,41.33,33,53.41,29.91L63.78,31.4c-7.63-1.78,2-4.23,10.5-6.25-2.71-.88-5-1.65-6.58-2l13.54-1.62c1.65.39.3,1.3-1.9,2.4.92-.22,1.79-.45,2.47-.65,4.87.85,2.38,2.37-1.07,3.87-1.66-.48-3.31-1-4.91-1.49C72.5,27.26,69.4,29,70.12,30.53a22.12,22.12,0,0,1,4.44-.78c-.87.44-1.42.83-1,1.08s1.87-.33,4.08-1l3.13,2.8.73-1.15,17.78,1.46c12.65-3.1,23.62-7.53,43.76-9.07-5,2.18-1,3.43-1.24,5.91-5.55-2.52-15.59,1.4-26,1.06,5.46.18,4.28,1.38,2.9,1.82l18.59-2.73c-.38,2,4,1.45,8.87,2.2-3.76-3.94,13.84-2.92,21.4-4.29.49,1.34-1.3,2.74-10.56,2.59,10.26,2.83,13.1-4.95,23.17-2.57-2.26.08-3.48-.11-4.36.59,5.25-1.29,18.17-.58,15.15.65l-2.25.07c15,.2,45.64-.81,47.82-4.25.16.44-1.89,4.14-2.79,4.84l26.55-11.94c-2.3,3,6.87,9.76-5.53,11.64A54.88,54.88,0,0,0,270.21,29c-2.45-.37-6.15-4.12-2.83-4.44,9.2,3.08,6.38,1.62,17.69,4.19-3.66-.56.31-5.22,6.08-5.18-.89.7.56,4.52-1.54,5l14.28-4.76c-3.57.88-.56,3.82,2.67,5-1.5-.86,12.42-.15,16.24-.66l-6.11-.93c16.23.38,15.9-6.62,32-6.68-1.93,1-4.71,5.81,3.48,6.22,3.71-2.37,16.4-11.38,30.6-13.41l2.75,1.26L396.4,13c-6.73,3.59-25.68,11.24-36,14.26,6.09.94,1.72,1.52,10.81,1.24,3.23,1.18-4.92,2-7.6,2.08l21.17.41c-1-2.67,16.13-3,15.28-5.21L377.09,29c-1-2.66,13.14-7.87,28.14-7.67,3.83,1-2.76,4.84-2.44,5.73,1.93-1,14.2-2,15.59-1.4L412,27.2c8.37.85,13.56-3.82,23.63-1.43,3.46.1,10.4,3.27,11,1.67-5.7-3-7-12.44-3.26-14.81,1.22.18,18.23,2.6,22.2,4,5.75,2.3-8.45,5.89-3.56,7.87.2-.74,3.33-1.7,4.64-2,3.64.56-1.47,2.31,6.43,1.83,1.26-2.75,16.06-.06,3.69-2.37,7.71-.92,8.22.41,17.29.12-2.92-1.71,8-6.14,15.76-7.06-.45.7,1.31,1.57,2.16,2,15.84-.05,24.36,1,39.13.79,1.37.64,8.51,1.3,5.5,2.53,2.11-.52,4-1.48,8.6-1.63,8.86,2.2-10.15.56-3.38,3.26.55-1.59,11.74-2.4,18.21-3.5-2-2.41-15-.2-21.47.91-.1-3.38,11.15-7.12,26.55-9,12.26-1.06,5.36,2.08,7.48,1.56,23,.17,19.52-6.25,38.7-4.16,7.63,2,.42,4.27,2.13,5.79-10,1-15.36-1.08-22.13-.87l8.35.86c-3.16.77-9.82,1.44-13.47.88,6.4,1.82,38.93-.34,56.74,1.12,3.15-.78,8.58-1.63,6-2.44l-5.62.4c-5.2-1.64,10.54-2.59,3.41-3.27,7.52-1.36,15.94-3.43,26.58-2.64l2,2.41c-.24-.71-7-1.33-9.94-.53,4.41-1.17,16.35,3,21.14-.28l-7.47-1.56c7.55-1.37,16.86-4.14,26.29-3.54-4.33-2.35-2.16.31-8.9-2.4,5.86,3.42-24.09.3-14.7,3.83-6.93-3.16-11.91-1.18-20.93-3.82.29.81,3.2,1.49-4.71,1.24a9,9,0,0,1-1.72.74l-.53,0,.44.09c-.34.13-.37.15.16,0a12.38,12.38,0,0,1,4,1.15c-3.89,1.93-16.46,2.1-20.69,3.14-4.7-.3,1.94-1-.63-1.78l-6.32,1.56c-.66-1.79-12.51-2.76-1.49-4l-9.94.1c-5.87-.9-13.93-1.16-18.88-.31-4.7-.3-11.81,2.2-7.75.72l-15.57,1.4-.16-.44c-15.38,0-31.61,3.55-49.26.63a114.71,114.71,0,0,1-19.19.85l-1.72-1.53c-6.63.67-20-1.19-22.82.49-7.25-4-32.29-.33-44-.85l-.4,2C451.63,7,443.92,7.7,434,8.7l.64,1.78C426,12.11,412.42,9.61,398.8,10c.91-.7,4.37-.58,6.82-.21-16.35-3.76-34.29,3.57-49.11.89a23.85,23.85,0,0,1-8.92.14,4.82,4.82,0,0,0,.91-.11c-.38,0-.94,0-1.51,0-1.63-.28-3.31-.61-5.13-.86a33.72,33.72,0,0,0,4.31.88c-2.83.09-7.13.39-11.34.91L333,9.8c-.35,0-.62,0-1,.07-4.15-.63-3.31,1-1.08,2.39a39.59,39.59,0,0,0-5.55,1.26c-3.42-3-11.05,1.25-15.7-2-2.82,1.67-21.19,1.6-23.37,5-.16-.44-1.4-.63.87-.69-4.71-.31-9.41-.61-13.61.43l-2-2.41-10.21,3.48c-6.27-1.38-8.87-2.2-2.71-4.2-14.91,3.17-12.12,1.31-24.79,4.42l.6-1.6c-4.55.15-11.78,2.4-14.55,1.14-10.22-2.82-50.33.51-76.49-1.81,5.15,4.57-12.18-1.87-13.15,1.76-1.54-1.07-5.19-1.63-1-2.66-13.31,1.32-20.06-1.39-29.2,1.83-1.55-1.08,2.82-1.67,1.45-2.3-1.06.26-4.21,1-5.61.4s1.93-1,4-1.48C86.33,13.33,85,16.75,84.09,20,77.16,18.57,73.72,18.85,68.78,21c-2.42-1-6.44-2,2-2.54-4.76-.07-29.1-1-29.53,1.56-1.51-.62-6.66-.07-7.91.25-10,0-13.19-.14-26.8.35l4.21.34a6.72,6.72,0,0,1-4.64,1.67A56,56,0,0,1,5.94,29a78.62,78.62,0,0,0-.07,8.7l-.32-.36c-.19,2.78-.35,5-.47,6.85C5,45.76,4.94,47,4.93,48a27.59,27.59,0,0,0,.27,4.06c.27,2.05.49,4.08-.6,13.66l1.89-1.07c4.16,1.7-2.12,17-.34,28.05l1-4c1.53,6-5.3,17-5.7,23.14-.34,1.33-.62-2.09-.91-3.93-2.15,16,2.55,2,3.35,13.88C2.59,124,.41,119,.3,127c-1,4,4.83,23.09,2.43,34.05,1-2.43,2-4.83,2.88.67.53,8.45-3.53,22.92-.1,30.5-.26,1.08-.53,1.49-.79,1.54,1,6.44,1.8,21,3.65,24.83-6.51,6.09,4,40.11-2.15,40.08l.69,19.87L6.27,278a77,77,0,0,0,.82,13.92,38.11,38.11,0,0,0,1,4.24c.37,1.68.77,3.23,1.16,4.63-.17,2-.41,2.4-.65,2.2s-.47-1-.64-1.1c-.19,6.9-.3,12.47-.32,17.07a157,157,0,0,0,16.65-.7c1.31-.13,2.64-.29,4-.46l2.07-.27,1.55-.3c2.13-.42,4.54-.94,7.42-1.56l1.66,2c4.2-1.23,26.89,2.61,45.06,0-.18.23-.55.62-2,.93,20.45-2.71,49.14,4.6,56.52-2.76l13.48-2c-17.49-.25,2.55-3.19-4.66-4.25,6.87-.55,17.82,1.85,9.37,2.38l-1.33-.34c-3,3.82,21.76.93,21.33,3.51,34.42-.82,68,.65,100.23.22l-3.76-2.86,11.24,0c3,.62,4,2.21-4,2.24,4.25,1.58,13.43-1.63,13.65-2.28,15.73.9-6.07,3.53-1.26,3.51l6.54-.34-1.48-.31c5.28-1.3,5.73-2.57,15.37-2.6,6.11.47,3.16,1.74,5.57,1.81,0,.21.8.29,3.68,0h14.17l-5.7-2.21c6.25-1.25,13.32-.12,6.73-2.61,9.67,3.85,52.88.48,58.79,1.62,8.76-1.84,17.44-2,28.2-2-2.68-.44-4.33-3,4.95-2.86-3.29,5.43,17,2,24.6,5.74-6.75-2.44,26.35-1.12,15.77-4.55,7.75.29.51,2,6.41,3.15,18.38-2.41,40.61.61,63.37-.51.34-.71-3.49-1.72,1.37-2.85l12.09,3.29c4.49-.42,4.06-4.13,12.32-1.84-1.17-.57-2.91-1.43.1-1.71,44.66,2.61,91.09-4.48,136.5,1.14-6.16-1.25-2.07-1.46,2.61-1.6-3-.27,0-1.74-.57-2.68l19,2.3c3.41-2.71,20.33-.55,22.26-3.12l-6,.57c7.93-3.13-11.29-6.43-10.2-10.29-8.88,3.56-23.67-4.59-38.25.53-3.25-.72,2.74-1.28,1-2.14-3.69,1.71-8.17,2.14-16.51,1.55l.93-.42c-23.37.83-33.43-.61-59.71-1.21l2,1.86a45.39,45.39,0,0,1-9.5-1.15c-6.43,3,15.85-.12,10,3.15-7.56-3.72-39.81.67-45-3.62-8.68.14,2.59,2.15-6.1,2.28l-2.32-1.14-2.17,1.57c-5.69-.15-8.59-1.58-8.82-2.58a48.86,48.86,0,0,0,5.4-.47c-7.41-1.26-20.81.86-23.35.45l8.35.58c-23.68,1.54-52.64.51-75.49,3.34l1.75.87c-17.45,2-14-.73-33.2.39l.69-.23a61.42,61.42,0,0,1-14.2,1.5c4.83-1.14-9.16-1.87-2.82-3.14-18.93,2.12-9.36,1.56-21.82,5.11l-2.91-1.43c-4.24,1.42-4.59,2.14-14.17,2.7,7.84-1.42-6.16-2.15,2.62-4-20.18-2.87-29.81,3.83-39.13-.75-9.16,4.27,17.45,2,12.29,2.93,4.36,1.27-7.57,3.21-13.89,2.91-6.43,0-11-5-27.19-4.67,1.61,0,1.72-.33,3.32-.34-6.07-.93-11.83,1.64-19.28.07-4.12,2.56-9.64,0-10.78,3.22l14.82-1c-8.4,1-16.21,4.83-30.09,3.29,1.06-.66,5.17-1.58,8-2.1-4.07-.86-7.79.76-12-.12,1.14-3.19,18-1,27-3.6-4.37-1.26-17,2.61-12.53-.9-6.43,4.48-15.94-.26-26.83,3.27l.69-1.91a45.19,45.19,0,0,1-8.49,1.3l5.73-2.57c-8.83,2.26-17.12-1.52-25.6-.22,17.8-.39,4,2.21,11.58,3.46-21.9,2.94-12.71-4.74-37.28-3.38,3.33-.32,12.52.92,7.33,1.89-4.69-.31-10.88-.92-13.77-1.86-16.28.69,2.54,1.9-4.37,3.19-5.59-2.21-8,1.09-15.11,2L182,300c-18.58-.89-4.84,4.12-21.58,2.93l7-2.81-8.7.85,1.75-2.23c-9.44,1.81-12.4,1.44-21.7,1,2.19,1.32-1.15,3.53-9.36,3.74-5.63-1.05,3.1-1.9-8.54-1.41,2.6-1.25,5.46-2.82,10.56-1.13.51-.64,2.57-1.26,3.1-1.89-6.07-1.21-15.18,0-19.4.07a26.84,26.84,0,0,1,4.57.36l-16.84,3c-2.67-.68-.58-1.3,1.5-1.91-3.41.27-5.76,1.2-10.79,1.46,1.27-1.59.93-3.2,8-4.07l-16.06,2c-1.09-.66-8.3-1.72-6.22-2.34-8.94-.75-21.83,3.45-33.68,2.45a14.09,14.09,0,0,1-4.35.9c-2.23,0-4.42-.13-6.59-.24l-3.25-.18-1.54-.09-.48-.1a8,8,0,0,0-3.79-.07,6.21,6.21,0,0,0-.86-1.6A7.3,7.3,0,0,1,27.57,296l0-.07a1.62,1.62,0,0,1,0-.31l-.1-.71a5.4,5.4,0,0,0-.21-1c-.15-.46-.32-.57-.51-.47a7.56,7.56,0,0,0-1.26,2.11c-.93.65-1.88,2.86-2.57-6.06-1.12-12.15,2.31-4.59,3-8.87-1.53-6-4.61-16.49-2.52-27.7C23.94,256.64,23.58,259.54,23.85,263ZM20.28,135.75c.45,2.46,1.79,7.35.68,9.18C18.7,142.16,19.72,140,20.28,135.75ZM93.09,28.52c-1.83.67-4.67.4-7.88-.27A33,33,0,0,1,93.09,28.52ZM631.78,5.23l-.26.1C626,4.68,628,4.94,631.78,5.23Zm11.44.63c1.15-.29,1.06-.56.57-.82-.79.51-3.35.59-6.27.5C638.34,6,639.82,6.36,643.22,5.86ZM322.07,313.7l-2.23-.47C324.85,312.59,323.45,313.12,322.07,313.7Z"/><path class="cls-1" d="M71.2,31.56a1.9,1.9,0,0,1-1.08-1C69.16,30.87,69.15,31.24,71.2,31.56Z"/><path class="cls-1" d="M45.28,300c.13,0,.26,0,.39,0a.88.88,0,0,0,.38-.36Z"/><path class="cls-1" d="M466.58,25.45a16.84,16.84,0,0,1-4.56-.91C461.9,25,463,25.39,466.58,25.45Z"/><path class="cls-1" d="M703.7,1.47l-7.31.64a25.1,25.1,0,0,1,6.6.51C702.82,2.17,701.41,1.55,703.7,1.47Z"/><path class="cls-1" d="M751.44,28.48c.26,1.07.07,2.27.33,3.32l.89-.31a24.3,24.3,0,0,0-.55-5C751.86,25.69,751.59,26.14,751.44,28.48Z"/><path class="cls-1" d="M710.59,7.76c.61,1.61,5.19,1,10.31.58a6.91,6.91,0,0,1-.91,0C721.46,6.06,716,6.91,710.59,7.76Z"/><path class="cls-1" d="M722.08,8.27a47.13,47.13,0,0,1,4.74-.13C727.4,7.22,724.9,8,722.08,8.27Z"/><path class="cls-1" d="M657.69,4.52c2.44.37,1.49-2.1,2.88-1.47C663.24.94,644.41,5.85,657.69,4.52Z"/><polygon class="cls-1" points="714.83 13.03 712.96 11.06 710.12 12.73 714.83 13.03"/><path class="cls-1" d="M674.34,12.3l8.2.41c-.13-.34.9-.55,2.18-.73C679.67,12,674.13,11.71,674.34,12.3Z"/><path class="cls-1" d="M684.72,12a33.25,33.25,0,0,0,6.58-.45C689.88,11.58,686.82,11.7,684.72,12Z"/><polygon class="cls-1" points="703.65 13.84 701.22 13.46 695.43 13.42 703.65 13.84"/><path class="cls-1" d="M586.29,13.52l-8.93.74c-.89.71,1.55,1.08,4.87.75C584.36,14.49,587.67,14.16,586.29,13.52Z"/><path class="cls-1" d="M613.42,18.52a9.78,9.78,0,0,1-4-1.45l-.22,2.49Z"/><path class="cls-1" d="M587.37,19.57c-.88.71-12.94,2.22-1.61,1.86C586.65,20.73,595.59,20,587.37,19.57Z"/><polygon class="cls-1" points="452.63 18.89 454.9 18.82 454.5 14.75 452.63 18.89"/><path class="cls-1" d="M334.11,30.81c10.61.78,2.47-2.56,12.06-1.52,2.47-1-7.84-.85-5.31-1.73C334.49,28.7,331.12,28.18,334.11,30.81Z"/><path class="cls-1" d="M340.86,27.56c1-.18,2.11-.39,3.26-.68A21.17,21.17,0,0,0,340.86,27.56Z"/><polygon class="cls-1" points="737.95 308.17 744.78 308.89 740.35 307.6 737.95 308.17"/><path class="cls-1" d="M751,304.9l1.65,2.57,4-2.42C755.13,305.19,752.15,305.47,751,304.9Z"/><path class="cls-1" d="M25.16,116.73l-.63-.5c-.66,1.06-.68,2.66-.73,5.85Z"/><polygon class="cls-1" points="24.91 209.14 24.93 207.55 22.64 210.56 24.91 209.14"/><path class="cls-1" d="M29.32,286.61c0-3.16-.55-6.87-.51-10.05C29.36,283.45,26.41,287.52,29.32,286.61Z"/></g></g></svg>