<svg xmlns="http://www.w3.org/2000/svg" viewBox="0 0 712.17 296.89"><defs><style>.cls-1{fill:#afd9d2;}</style></defs><title>daniela-green</title><g id="Layer_2" data-name="Layer 2"><g id="Layer_1-2" data-name="Layer 1"><path class="cls-1" d="M99,63.83l3.07-.06q32.4-.59,50.22,56a136.27,136.27,0,0,1,1.87,18.41q.86,47.1-39.75,96.1l-15.28,4.89q-3.21-7.77-3.27-10.7l1.54,0-1.6-3.05Q93.51,184.9,93,157.7l-.08-4.61a1.35,1.35,0,0,1,1.5-1.56A1.35,1.35,0,0,0,92.87,150a45,45,0,0,1,1.34-10.79Q92.29,118.56,92,103.92L92,100.85a1.36,1.36,0,0,1,1.51-1.57l-1.59-3-.12-6.15Q92.3,63.94,99,63.83Zm4.75,7.6,0,1.53a44.76,44.76,0,0,0,1.73,10.73q-1,28.29-1.27,98.4,2,25,2.35,44.6,37.82-33.43,36.84-86.82l-.28-15.37q-5.26-28-33.23-51.65Z"/><path class="cls-1" d="M216.05,63.22l1.53,0q10.56-.18,20.13,91.87l1.12,61.53q-.71,20-5.78,20.09l-1.53,0c-2.05,0-3.11-1.48-3.16-4.56q-.27-14.35.3-67.71l-1.74-10.72,1.54,0a11,11,0,0,1-1.62-4.58,211,211,0,0,0-3.72-35.29l-10.76.2q-6.68.12-22.47,115.76l-4.56,3.16-3.07.05a11,11,0,0,0-1.62-4.58,969.72,969.72,0,0,1,26.5-148.12Q212.3,63.29,216.05,63.22Zm.45,24.59q-4.32,16.18-4.28,18.52l9.22-.16q0-2.94-3.41-18.39Z"/><path class="cls-1" d="M307,47.73l3.07-.06q3.3,12.24,3.44,19.92,2.77,152.19-4.9,152.34a11,11,0,0,1-4.58,1.62q-5.83-4.52-19.74-70.42-2.59,0-6.56-22.94l-1.54,0,.42,23.05a1.36,1.36,0,0,1-1.51,1.57,1.37,1.37,0,0,0,1.57,1.51q-1.22,18.14-1.81,69.27l-3,1.59-6.14.11q.93-33.09.63-49.27l-2-107.56q.76-9.24,4.44-9.3,6.4-.12,23.06,84.12,9.78,30.56,9.95,39.78l1.53,0,.63-133.74Z"/><path class="cls-1" d="M348.32,65.42q35.64.89,36.91.86l1.59,3,.09,4.61-18.44.34q4.66,86.87,4.87,98.29.26,14.16-2.15,50.83L382,223.2c2.05.27,3.1,1.28,3.13,3l.06,3.08c0,2-1.48,3.1-4.56,3.15q-27,2-32.24,2.13l-1.59-3,0-1.53q1.45-4.63,9.14-4.78l4.61-.08-1.52-83q-.4-22.11-2.64-59.9c1-1.71,1.46-4.28,1.4-7.71q-13.86-1.62-13.91-4.36l0-1.54C343.73,66.53,345.25,65.47,348.32,65.42Z"/><path class="cls-1" d="M418.18,59.53l10.75-.2q16.9-.31,17,4.3.07,4.14-19.86,6.51l.39,21.52q.06,3.07,15.45,4.33l.08,4.61q-16.89.3-16.7,11.06-1.14,21.61-1,112.3,1.56,1.51,23.1,2.65l.06,3.08c0,2-1,3.09-3,3.12l-26.12.48q-2.2,0-4.7-4.52-.81-128.45,1.8-153.82a11.4,11.4,0,0,1-1.62-4.58Q415.64,59.57,418.18,59.53Z"/><path class="cls-1" d="M480.13,49.17l4.61-.08q3.4,18.45,3.6,29.14L490,165.82a1.36,1.36,0,0,1-1.51,1.56,1.36,1.36,0,0,0,1.56,1.51l-1.39,7.71.62,33.87,12.29-.22a1.36,1.36,0,0,1,1.57,1.51l3-1.6q7.71,1.8,7.77,4.47l0,1.54q-1.45,4.64-9.14,4.78l-18.44.34q-7.68.14-8.44-41.42L477.6,163a1.36,1.36,0,0,1,1.51-1.57,1.36,1.36,0,0,0-1.57-1.5c0-2.05.46-3.09,1.48-3.11q-2.25-38.65-2.66-61.43l-.67-36.88Q476.46,49.24,480.13,49.17Z"/><path class="cls-1" d="M574.75,56.66l1.54,0q10.56-.2,20.13,91.86L597.54,210q-.7,20-5.78,20.09l-1.54,0q-3.08.06-3.15-4.56-.27-14.35.29-67.7l-1.73-10.73,1.54,0a11,11,0,0,1-1.62-4.58,211.14,211.14,0,0,0-3.72-35.29l-10.76.2q-6.68.12-22.48,115.76L544,226.38l-3.07.06a11,11,0,0,0-1.62-4.59A970.59,970.59,0,0,1,565.84,73.74Q571,56.73,574.75,56.66Zm.45,24.59q-4.31,16.19-4.27,18.52l9.22-.16q-.06-2.94-3.41-18.39Z"/><path class="cls-1" d="M710.3,274.19c-.09,2.81,1.56,1.78,1.87,2.19C711.71,271.69,709.87,274.32,710.3,274.19Z"/><polygon class="cls-1" points="705.65 227.94 706.35 228.75 704.55 221.95 705.65 227.94"/><path class="cls-1" d="M704.89,184.62c-2.78,4.15.75,15.69-.13,23.43l-.62,1.28,2.36,3.44C706,203.4,704.21,191.24,704.89,184.62Z"/><path class="cls-1" d="M710.64,161.41c-1.08,1.45-1-5-.25,5.39a9.22,9.22,0,0,1,.27-1C710.62,164.89,710.6,163.6,710.64,161.41Z"/><path class="cls-1" d="M710.66,165.82c.16,4.56.88-3,0,0Z"/><path class="cls-1" d="M709.63,144.77l1.11,6c.63-1.27.68-6.62,1.19-4.64C711.28,140,710.65,141.24,709.63,144.77Z"/><path class="cls-1" d="M707.45,139.11l.47,3.11C708.19,141.66,708.27,140.84,707.45,139.11Z"/><path class="cls-1" d="M708.93,148.8l-1-6.58c-.44.87-1.37,1,.38,3C707.44,144.72,708.28,146,708.93,148.8Z"/><path class="cls-1" d="M708.56,152.55c-.56,3.38-.87,7.74-2,1.73C707.2,165.77,709.17,164,708.56,152.55Z"/><path class="cls-1" d="M701.9,182.46l-.76,4.53,1,3.88C701.66,188.93,702.79,182.17,701.9,182.46Z"/><path class="cls-1" d="M710.43,107.31c-.62-.37-1.58,2-2.35,2.51l.78,4.43C709.23,112,709.53,107.63,710.43,107.31Z"/><path class="cls-1" d="M708.08,109.82l-1.17-6.62C706.9,109.13,707.41,110.21,708.08,109.82Z"/><polygon class="cls-1" points="704.26 138.1 706.65 148.96 704.19 135.99 704.26 138.1"/><polygon class="cls-1" points="710.04 81.94 711.52 85.68 709.27 79.02 710.04 81.94"/><path class="cls-1" d="M709.49,65.12c1.21,2.77,1.9-3.85,2.67-.92a56.63,56.63,0,0,0-2.33-12A39.67,39.67,0,0,1,709.49,65.12Z"/><path class="cls-1" d="M708.41,46.38c.32,1.86.85,3.78,1.42,5.87A31.75,31.75,0,0,0,708.41,46.38Z"/><path class="cls-1" d="M707,91.88c.35-.52,1.3-1.53,1.64-5.26L707,89.27Z"/><path class="cls-1" d="M706.93,89.36l.06-.09c0-2.84,0-4.81,0-5.65C707,84.35,707,86.07,706.93,89.36Z"/><path class="cls-1" d="M707,92.54v-.66C706.84,92.14,706.79,92.29,707,92.54Z"/><path class="cls-1" d="M705.49,120.66c-1-3.89-2.2-12-3.52-4.1C703.19,119.33,703.94,114.81,705.49,120.66Z"/><path class="cls-1" d="M704.93,95.82l-.26,7.06c.45-.14,1.09-1.43,1.6.5Z"/><polygon class="cls-1" points="704.33 92.38 704.93 95.82 705.03 93.2 704.33 92.38"/><path class="cls-1" d="M707,58.49a50.44,50.44,0,0,1-1.12-10.13c-.26,4-.36,8.22-.29,12.18C706.18,61.09,707.18,62.81,707,58.49Z"/><path class="cls-1" d="M706.84,73.49l-.11-.67C706.59,73.24,706.55,73.57,706.84,73.49Z"/><path class="cls-1" d="M703.64,2.73c.24.09.42.2.66.3.17-.1.31-.2.51-.31Z"/><path class="cls-1" d="M705.33,61.22a14.76,14.76,0,0,0,.73,6.57c-.21-2.27-.37-4.67-.43-7.25C705.39,60.29,705.23,60.25,705.33,61.22Z"/><path class="cls-1" d="M707.43,36.05c-.33,1.59-.6,3.39-.85,5.27C707.1,39.77,707.88,36.6,707.43,36.05Z"/><path class="cls-1" d="M707.18,71.79c0,.15.06.28.08.45C707.61,71.24,707.44,71.37,707.18,71.79Z"/><path class="cls-1" d="M707.18,71.79a27.71,27.71,0,0,0-1.12-4c.17,1.84.39,3.55.67,5A4.69,4.69,0,0,1,707.18,71.79Z"/><path class="cls-1" d="M683.35,14.08c.32-.68,1.94-1.36,4.41-1.8a32.33,32.33,0,0,1,8.46-.36,36.86,36.86,0,0,1-.5,3.81c.63,2.77,2.18,2.82,3.92.61a21,21,0,0,0,2.64-5.09,59.83,59.83,0,0,0,2.36-8.06A2.68,2.68,0,0,0,704.3,3a5.93,5.93,0,0,1-2.62,1.09,93.72,93.72,0,0,1-10,1.4c1.5.39,6.26.78,9.44,1.27a30.94,30.94,0,0,1-.85,5.3c-.32,1-.68.88-1.08-.68L699,9c-8.68.58-6.47-.68-11.57-1.35,1.08.48.54.91-.69,1.34s-3.14.85-5,1.31l-1.36.34c-.42.12-.79.23-1.16.36a15.57,15.57,0,0,0-2,.76c-1.11.55-1.69,1.16-1.18,1.88l8.11-1.17c0,.22-.74.53-1.19.82S682.37,13.89,683.35,14.08Z"/><path class="cls-1" d="M705,23.74l.28,4.31.09-1.67c0-.62.08-1.24.12-1.84.1-1.23.22-2.45.37-3.76.3-2.62.71-5.57,1.26-9.71-.86-7.27-1.44-8.46-1.94-8.45a1,1,0,0,0-.38.1h.27l.2,22.55Z"/><path class="cls-1" d="M705.53,40.92c-1.76-2.2-2.62-9.08-4.41-4.83.27,8.42,1.55,5.88,2.39,10.89-.68-13.57,1,3.89,1.83-5.95.34,2.67.47,5.07.58,7.33.17-2.45.39-4.81.66-7l-.1.32v.06h0c-.2.59-.33.78-.22.12a2.09,2.09,0,0,1,0-.28,1.78,1.78,0,0,1-.66-.61c.28-3.94.44-.62.66.61.09,0,.17.14.26.16l0,0-1.19-13.59A121.87,121.87,0,0,0,705.53,40.92Z"/><path class="cls-1" d="M698.13,109.37c.15-.43.27-.41.4-.45C698.3,108.05,698.15,107.72,698.13,109.37Z"/><path class="cls-1" d="M699.07,103.75a10.57,10.57,0,0,1,.85,5c-.47,2.8-.83,0-1.39.16.49,1.93,1.36,6.76,2.08.67l-.25-1c.49-5.49,2.51-12.56,2.77-11.61A18.35,18.35,0,0,0,699.07,103.75Z"/><path class="cls-1" d="M701.86,72,700.8,60.64l-1.38,5.8.89-.31C700.07,72.58,701.15,71.17,701.86,72Z"/><path class="cls-1" d="M702.26,1.9c1.35-.63,2.75-1.27,4.22-1.9q-7.07,1.41-13,2.81Z"/><polygon class="cls-1" points="678.66 2.55 679.18 0.95 675.31 1.98 678.66 2.55"/><path class="cls-1" d="M22.09,186.47l.51,3.32A25,25,0,0,0,22.09,186.47Z"/><path class="cls-1" d="M21.76,162.36l-.79-.57C21.42,162.9,21.74,163.35,21.76,162.36Z"/><path class="cls-1" d="M317,9.34c-4.88-1.39-10.34-3.59-9.72-1.82l1.52,1.71A30.7,30.7,0,0,1,317,9.34Z"/><path class="cls-1" d="M69.54,24.22l1.43.5L74.22,23Z"/><path class="cls-1" d="M66.25,31.47l-6.41-1A47.7,47.7,0,0,0,66.25,31.47Z"/><path class="cls-1" d="M43.42,277.26l3.85-1.83C41.19,275.55,43.88,276.39,43.42,277.26Z"/><path class="cls-1" d="M527.86,5.94a78.3,78.3,0,0,0-10.46-.85C522.46,6,526.56,7.41,527.86,5.94Z"/><path class="cls-1" d="M3.51,177.32c.35,2,.72,2.9,1.1,2.83C4.28,178.06,3.92,176.88,3.51,177.32Z"/><path class="cls-1" d="M505.31,5.31c.74.16,1.47.24,2.22.37a74,74,0,0,1,9.87-.59C513.66,4.41,509.39,4,505.31,5.31Z"/><path class="cls-1" d="M520.89,270c.35.08.76.11,1.08.19C522.07,269.93,521.59,269.92,520.89,270Z"/><path class="cls-1" d="M660.3,284.94c-1.37.13-3.6.18-5.71.24A32,32,0,0,0,660.3,284.94Z"/><path class="cls-1" d="M619.4,2.87c3.12-.17.49-.2,0,0Z"/><path class="cls-1" d="M634.71,9.46c-.66.2-1.16.46-1.23.86A2.06,2.06,0,0,1,634.71,9.46Z"/><path class="cls-1" d="M474.4,16.68h-.27C475.07,17,474.91,16.94,474.4,16.68Z"/><path class="cls-1" d="M624.11,3.58c-1.17-.2-2.53-.35-4-.45C620.76,3.26,622,3.4,624.11,3.58Z"/><path class="cls-1" d="M623.47,2.77l2.73.12C626.59,2.59,626.24,2.41,623.47,2.77Z"/><path class="cls-1" d="M615.05,3.05c1.79-.06,3.45,0,5.06.08-.61-.1-.87-.2-.71-.26Z"/><path class="cls-1" d="M265.16,279.29c.2.06.44.09.67.16C269,278.67,267.58,278.81,265.16,279.29Z"/><path class="cls-1" d="M236.07,28.84c.15,0,.23-.07.36-.09L236,28.7Z"/><path class="cls-1" d="M224.88,30.34c4.74-2.25,7.46-2,11.09-1.64l-3.8-4.94Z"/><path class="cls-1" d="M23.65,244.18l1.41-7.91c2.74,9.46,2,16.36,4,8.92-5.45-1-1.12-30.6-6.56-31.6l1.05-5.21c0,1.48.29,1.72.27,3.19,2.41-10.15-4.07-7.43-3.53-20.46.33-4.54,1.06-7.72,1.76-4.64l-1.53-10.08c.06-2.94,1-2.24,1,.69l-.71-15.4.16.11a98,98,0,0,1-2.91-9.57c.71-3.93.62,2,1.28.94l-1.48-8.51c1.35-3.5,2.84,3.55,2.75,9.45C25.89,146,19.11,147,22,129.79l.83,8c3-5.25,1.76-11.52,3.51-20.66-1,2.18-4.51,18.32-6,9.09a28.6,28.6,0,0,0-.69-11c1.93-.08,1.37-5,1.15-11l2.56.37c-.86-6.59-2.15-6.05-3.37-9.91C20.05,87.27,22,85.71,23.64,84c.19-11.79-3,8.19-3.77-5.74.8-9.82-.37-16.68-2.11-28.37C18.51,43,19.34,51,20,48.54l-2.15-6c0-1.49.65-1,1-.78a10.54,10.54,0,0,0-.37-1.5,1.77,1.77,0,0,0-.41-.41,8,8,0,0,0-.93-.45c-.63-.31-1.26-.81-1.65-3.51-1.26-1.11-.66-3.37.14-5.14,2.25.49,4.41,1.07,6.15,1.3a8.47,8.47,0,0,0,2.46,0c.19,0,.39-.07.58-.12l.3-.08.07,0,.14,0,.28-.06a15.82,15.82,0,0,0,2.15-.57c2.46.68-1.16,1.59-.39,2.57C41,31.38,39.07,32,50.24,29l9.6,1.5c-7.06-1.79,1.87-4.23,9.7-6.24-2.51-.88-4.65-1.65-6.09-2L76,20.6c1.52.4.27,1.3-1.76,2.4.85-.22,1.66-.45,2.29-.65,4.5.86,2.2,2.38-1,3.87-1.54-.48-3.06-1-4.55-1.5C67.9,26.33,65,28.11,65.7,29.59a18.8,18.8,0,0,1,4.11-.76c-.81.43-1.32.82-.94,1.07s1.73-.33,3.77-1l2.91,2.8.67-1.14L92.67,32c11.7-3.09,21.84-7.5,40.46-9-4.59,2.18-.93,3.44-1.14,5.92-5.13-2.53-14.42,1.38-24.09,1,5,.19,4,1.39,2.68,1.82l17.19-2.7c-.35,2,3.69,1.45,8.21,2.21-3.48-3.94,12.8-2.9,19.79-4.26.46,1.34-1.2,2.74-9.76,2.57,9.49,2.85,12.11-4.92,21.42-2.53-2.09.07-3.21-.12-4,.58,4.86-1.28,16.81-.55,14,.67l-2.08.07c13.88.22,42.22-.75,44.22-4.19.15.44-1.74,4.14-2.56,4.84l24.53-11.9c-2.12,3,6.37,9.77-5.1,11.63a46.85,46.85,0,0,0,14.35-.39c-2.26-.38-5.7-4.12-2.62-4.45,8.51,3.1,5.9,1.64,16.36,4.22-3.39-.57.28-5.22,5.62-5.17-.82.7.53,4.52-1.41,5l13.2-4.74c-3.3.87-.52,3.82,2.47,5-1.39-.86,11.49-.13,15-.64l-5.65-.94c15,.41,14.7-6.59,29.58-6.63-1.78,1-4.34,5.8,3.23,6.23C330,23.94,341.73,15,354.86,12.93l2.55,1.27,10.07-1.68c-6.22,3.58-23.74,11.2-33.32,14.21,5.63.94,1.59,1.52,10,1.25,3,1.18-4.55,2-7,2.07l19.58.44c-.92-2.67,14.92-3,14.13-5.19l-21.2,3.17c-.91-2.67,12.15-7.85,26-7.63,3.55,1-2.55,4.83-2.24,5.72,1.78-1,13.12-2,14.41-1.37L382,26.73c7.74.87,12.53-3.79,21.85-1.4,3.21.12,9.63,3.29,10.15,1.69-5.28-3-6.47-12.44-3-14.81,1.12.18,16.86,2.62,20.54,4.07,5.32,2.31-7.81,5.88-3.28,7.86.18-.73,3.07-1.69,4.28-2,3.37.57-1.35,2.3,5.95,1.84,1.17-2.75,14.86,0,3.41-2.37,7.13-.91,7.61.42,16,.15-2.7-1.71,7.43-6.13,14.57-7-.41.7,1.22,1.57,2,2,14.66,0,22.54,1.07,36.2.85,1.27.63,7.88,1.31,5.09,2.54,2-.52,3.74-1.48,8-1.62,8.19,2.21-9.39.54-3.12,3.26.5-1.6,10.85-2.39,16.83-3.49-1.89-2.41-13.87-.21-19.86.89-.09-3.38,10.31-7.1,24.56-8.93,11.33-1,5,2.1,6.91,1.58,21.33.2,18-6.23,35.79-4.11,7.06,2,.4,4.27,2,5.79-9.22,1-14.21-1.11-20.47-.9l7.73.87c-2.93.77-9.09,1.43-12.46.86,5.92,1.83,36-.28,52.48,1.2,2.91-.77,7.94-1.61,5.54-2.43l-5.2.39c-4.81-1.65,9.75-2.58,3.15-3.27,7-1.34,14.74-3.4,24.59-2.6L644,10c-.23-.71-6.45-1.34-9.2-.55,4.08-1.16,15.13,3.05,19.55-.25l-6.91-1.57c7-1.36,15.59-4.12,24.31-3.51-4-2.34-2,.32-8.24-2.4,5.43,3.42-22.27.26-13.59,3.8-6.41-3.17-11-1.19-19.36-3.84.27.8,3,1.49-4.35,1.23a9.08,9.08,0,0,1-1.59.74l-.5,0,.41.08c-.32.13-.34.16.15,0a11,11,0,0,1,3.75,1.17C624.82,6.78,613.2,6.93,609.29,8c-4.35-.31,1.79-1-.59-1.78l-5.85,1.54c-.61-1.79-11.57-2.77-1.38-4l-9.19.09c-5.44-.91-12.89-1.18-17.47-.34-4.34-.31-10.92,2.19-7.17.72l-14.4,1.37-.14-.44c-14.23,0-29.24,3.51-45.57.56a97.7,97.7,0,0,1-17.74.82L488.2,5c-6.14.65-18.5-1.22-21.12.45-6.71-4.06-29.87-.37-40.7-.91l-.37,2a228.09,228.09,0,0,0-23.8,1.72l.6,1.78c-7.95,1.62-20.51-.9-33.12-.49.85-.7,4.05-.58,6.32-.21-15.13-3.77-31.72,3.53-45.43.83a20.59,20.59,0,0,1-8.25.13,4.08,4.08,0,0,0,.84-.11c-.35,0-.87,0-1.4,0-1.51-.28-3.06-.61-4.74-.86a26.22,26.22,0,0,0,4,.88c-2.62.09-6.6.38-10.49.9l-1.7-1.89c-.32,0-.57,0-.9.07-3.84-.64-3.06,1-1,2.38a33.92,33.92,0,0,0-5.14,1.26c-3.17-3-10.22,1.23-14.53-2-2.6,1.67-19.59,1.58-21.61,5-.14-.44-1.29-.63.81-.7-4.36-.31-8.71-.62-12.59.41L252,13.25l-9.44,3.47c-5.8-1.39-8.21-2.21-2.51-4.2-13.79,3.15-11.21,1.29-22.92,4.38l.54-1.59c-4.2.13-10.89,2.38-13.45,1.12-9.46-2.84-46.56.43-70.76-1.92,4.77,4.57-11.26-1.89-12.15,1.74-1.43-1.07-4.81-1.64-.91-2.67-12.31,1.31-18.55-1.4-27,1.8C92,14.3,96,13.71,94.72,13.08c-1,.26-3.89,1-5.19.4s1.79-1,3.73-1.48c-12.58.42-13.8,3.84-14.65,7C72.2,17.65,69,17.92,64.45,20.1c-2.24-1-6-2,1.85-2.55-4.4-.07-26.91-1-27.31,1.53-1.39-.62-6.16-.08-7.31.24H20.13c-3.6,0-7.22.09-13.64.33l3.92.35a5.52,5.52,0,0,1-4.17,1.65,47.46,47.46,0,0,1-.19,5.82,64.84,64.84,0,0,0-.08,8l-.32-.36c-.11,1.42-.2,2.7-.29,3.85s-.13,2-.19,2.8C5.07,43.27,5,44.41,5,45.33a21.43,21.43,0,0,0,.27,3.75c.26,1.9.48,3.77-.63,12.64l1.9-1c4.16,1.57-2.15,15.71-.38,26l1-3.73c1.51,5.58-5.33,15.77-5.74,21.41-.34,1.24-.61-1.92-.91-3.63-2.16,14.78,2.55,1.86,3.34,12.83C2.58,115.6.4,111,.28,118.4c-1,3.7,4.8,21.36,2.38,31.49,1-2.24,2-4.46,2.89.62.51,7.82-3.57,21.21-.14,28.22-.27,1-.54,1.38-.8,1.42,1,6,1.77,19.4,3.62,23-6.52,5.64,3.9,37.1-2.21,37.07l.66,18.38-.63-.47A65.45,65.45,0,0,0,6.85,271c.54,2.59,1.34,6.19,2.12,8.6-.35,3.82-1,1.38-1.29,1.12-.2,6.41-.32,11.58-.34,15.84a133.19,133.19,0,0,0,15.42-.68c1.23-.13,2.47-.28,3.74-.45l1.94-.28,1-.14.51-.08.38-.08c2-.42,4.2-.93,6.87-1.54l1.53,2c3.88-1.22,24.88,2.66,41.68,0-.16.22-.5.62-1.84.92,18.91-2.67,45.47,4.67,52.28-2.68l12.47-2c-16.19-.27,2.35-3.18-4.33-4.26,6.36-.54,16.49,1.88,8.68,2.39l-1.23-.34c-2.8,3.82,20.12,1,19.74,3.54,31.82-.77,62.89.75,92.71.36l-3.49-2.86,10.4,0c2.74.63,3.71,2.22-3.71,2.24,3.93,1.58,12.41-1.62,12.61-2.26,14.55.92-5.61,3.51-1.15,3.5l6-.33-1.37-.31c4.89-1.29,5.3-2.56,14.22-2.58,5.65.48,2.93,1.75,5.15,1.82,0,.21.74.29,3.41,0h13.11l-5.29-2.21c5.79-1.24,12.33-.1,6.23-2.61,8.95,3.87,48.91.56,54.38,1.71,8.11-1.83,16.13-1.95,26.08-1.93-2.48-.44-4-3,4.58-2.84-3,5.41,15.75,2,22.76,5.76-6.25-2.44,24.37-1.07,14.59-4.53,7.16.31.47,2,5.92,3.16,17-2.38,37.57.67,58.62-.42.32-.71-3.23-1.72,1.27-2.85L514.43,289c4.15-.42,3.76-4.13,11.4-1.82-1.08-.58-2.7-1.44.08-1.71,41.32,2.67,84.26-4.35,126.27,1.32-5.7-1.26-1.92-1.46,2.41-1.59-2.82-.28,0-1.74-.54-2.68l17.59,2.32c3.15-2.7,18.81-.52,20.59-3.08l-5.54.55c7.33-3.12-10.46-6.44-9.45-10.29-8.21,3.54-21.9-4.63-35.39.47-3-.72,2.54-1.28.92-2.13-3.41,1.7-7.56,2.12-15.27,1.52l.86-.42c-21.62.8-30.92-.65-55.24-1.29L575,272a38.81,38.81,0,0,1-8.78-1.16c-5.94,3,14.66-.1,9.26,3.16-7-3.72-36.82.62-41.58-3.68-8,.13,2.39,2.15-5.64,2.27l-2.15-1.14-2,1.56c-5.27-.15-7.95-1.59-8.17-2.59a39.89,39.89,0,0,0,5-.46c-6.86-1.27-19.25.83-21.6.42L507,271c-21.9,1.51-48.69.44-69.83,3.24l1.63.86c-16.15,1.95-13-.74-30.72.35l.64-.23a51.8,51.8,0,0,1-13.13,1.48c4.46-1.13-8.48-1.88-2.62-3.14-17.5,2.09-8.64,1.55-20.17,5.08l-2.69-1.43c-3.93,1.41-4.24,2.13-13.1,2.67,7.25-1.4-5.71-2.15,2.41-4-18.67-2.91-27.57,3.78-36.19-.81-8.47,4.26,16.14,2,11.37,2.95,4,1.27-7,3.2-12.84,2.89-5.95,0-10.21-5.07-25.16-4.71,1.49,0,1.58-.32,3.07-.33-5.62-.95-10.94,1.61-17.84,0-3.8,2.55-8.91,0-10,3.2l13.7-1c-7.76,1-15,4.81-27.83,3.25,1-.66,4.78-1.57,7.4-2.09-3.77-.86-7.21.76-11.11-.13,1-3.19,16.66-1,24.95-3.56-4.05-1.27-15.72,2.58-11.6-.93-5.94,4.47-14.74-.28-24.81,3.24l.64-1.91a39.71,39.71,0,0,1-7.85,1.29l5.29-2.56c-8.16,2.25-15.84-1.55-23.68-.26,16.46-.36,3.74,2.22,10.72,3.47-20.26,2.92-11.77-4.75-34.49-3.42,3.08-.33,11.58.93,6.78,1.89-4.33-.31-10.06-.93-12.74-1.88-15,.67,2.35,1.91-4,3.19-5.17-2.21-7.38,1.08-14,1.94l-.08-1.93c-17.19-.92-4.48,4.11-20,2.89l6.48-2.79-8,.84,1.62-2.23c-8.73,1.79-11.47,1.42-20.07,1,2,1.32-1.06,3.52-8.66,3.72-5.21-1.05,2.87-1.88-7.9-1.41,2.41-1.25,5-2.82,9.77-1.13.47-.63,2.38-1.25,2.86-1.88-5.61-1.22-14,0-17.94,0a22.94,22.94,0,0,1,4.23.38l-15.58,3c-2.47-.68-.53-1.3,1.39-1.9-3.16.26-5.33,1.19-10,1.44,1.17-1.59.86-3.2,7.43-4.06l-14.85,2c-1-.66-7.68-1.73-5.76-2.35-8.27-.77-20.18,3.42-31.15,2.4a12,12,0,0,1-4,.89c-2.07,0-4.09-.13-6.1-.24l-3-.19a1,1,0,0,1-.38-.05l-.22,0-.43-.1a6.68,6.68,0,0,0-3.5-.08,5.11,5.11,0,0,0-.86-1.42,7.94,7.94,0,0,1,2.76-2.66.86.86,0,0,0-.15-.22s0,0,0-.08l-.05-.24c0-.15-.08-.28-.11-.38-.15-.43-.33-.53-.51-.44-.38.14-.81,1.41-1.28,1.38-.47.25-.94.55-1.38.38a1,1,0,0,1-.32-.25,1.27,1.27,0,0,1-.15-.21.6.6,0,0,1-.07-.14l-.08-.36a41.18,41.18,0,0,1-.55-4.45c-1.11-11.23,2.32-4.24,3-8.2-1.52-5.57-4.58-15.25-2.48-25.63C23.75,238.3,23.38,241,23.65,244.18Zm-3.4-117.7c.45,2.28,1.78,6.8.67,8.49C18.66,132.41,19.68,130.38,20.25,126.48ZM86.94,27.61c-1.68.67-4.31.41-7.28-.27A28.62,28.62,0,0,1,86.94,27.61ZM585.2,5.07a1.08,1.08,0,0,0-.24.1C579.85,4.51,581.67,4.77,585.2,5.07Zm10.58.64c1.06-.29,1-.55.52-.81-.72.5-3.1.58-5.8.49C591.26,5.88,592.63,6.2,595.78,5.71Zm-297,286-2.07-.47C301.32,290.56,300,291.09,298.75,291.67Z"/><path class="cls-1" d="M66.7,30.63a1.85,1.85,0,0,1-1-1C64.81,29.94,64.8,30.31,66.7,30.63Z"/><path class="cls-1" d="M42.7,277.6c.12,0,.24,0,.36,0a.87.87,0,0,0,.36-.36Z"/><path class="cls-1" d="M432.41,25.06a14.41,14.41,0,0,1-4.21-.92C428.09,24.62,429.08,25,432.41,25.06Z"/><path class="cls-1" d="M651.71,1.41,645,2a21.12,21.12,0,0,1,6.11.52C650.9,2.11,649.59,1.48,651.71,1.41Z"/><path class="cls-1" d="M695.88,27.28c.25,1,.06,2.09.32,3.06l.89-.28a21,21,0,0,0-.55-4.69C696.29,24.66,696,25.12,695.88,27.28Z"/><path class="cls-1" d="M658.09,7.71c.57,1.61,4.8,1,9.54.59a7.91,7.91,0,0,1-.84,0C668.15,6,663.11,6.87,658.09,7.71Z"/><path class="cls-1" d="M668.73,8.23a42.94,42.94,0,0,1,4.38-.12C673.65,7.19,671.33,8,668.73,8.23Z"/><path class="cls-1" d="M609.16,4.39c2.26.38,1.37-2.1,2.66-1.46C614.29.82,596.88,5.7,609.16,4.39Z"/><polygon class="cls-1" points="662.03 12.98 660.29 11.01 657.66 12.68 662.03 12.98"/><path class="cls-1" d="M624.57,12.2l7.58.41c-.12-.33.84-.54,2-.72C629.5,11.91,624.38,11.61,624.57,12.2Z"/><path class="cls-1" d="M634.17,11.89a28.65,28.65,0,0,0,6.09-.44C639,11.5,636.12,11.61,634.17,11.89Z"/><polygon class="cls-1" points="651.68 13.78 649.44 13.4 644.09 13.35 651.68 13.78"/><path class="cls-1" d="M543.13,13.3l-8.26.73c-.83.7,1.43,1.08,4.51.75C541.35,14.26,544.41,13.94,543.13,13.3Z"/><path class="cls-1" d="M568.23,18.33a8.45,8.45,0,0,1-3.67-1.46l-.21,2.49Z"/><path class="cls-1" d="M544.13,19.35c-.81.71-12,2.2-1.48,1.85C543.47,20.5,551.74,19.78,544.13,19.35Z"/><polygon class="cls-1" points="419.5 18.49 421.61 18.42 421.23 14.35 419.5 18.49"/><path class="cls-1" d="M309.89,30.24c9.81.79,2.28-2.56,11.15-1.5,2.28-1-7.25-.86-4.91-1.74C310.24,28.13,307.12,27.61,309.89,30.24Z"/><path class="cls-1" d="M316.13,27c.95-.18,1.95-.39,3-.67A17.57,17.57,0,0,0,316.13,27Z"/><polygon class="cls-1" points="683.42 286.71 689.74 287.44 685.65 286.15 683.42 286.71"/><path class="cls-1" d="M695.46,283.46,697,286l3.74-2.42C699.31,283.76,696.55,284,695.46,283.46Z"/><path class="cls-1" d="M25.16,108.89l-.63-.47c-.66,1-.69,2.46-.74,5.42Z"/><polygon class="cls-1" points="24.78 194.36 24.8 192.89 22.51 195.68 24.78 194.36"/><path class="cls-1" d="M29.08,266c.05-2.93-.54-6.36-.49-9.3C29.13,263.09,26.17,266.86,29.08,266Z"/></g></g></svg>