<svg xmlns="http://www.w3.org/2000/svg" viewBox="0 0 621.28 235.19"><title>daniela-black</title><g id="Layer_2" data-name="Layer 2"><g id="Layer_1-2" data-name="Layer 1"><path d="M8.85,19.85l3.78-.07Q52.42,19,74.31,88.52a166.05,166.05,0,0,1,2.3,22.61q1,57.85-48.83,118.05L9,235.19Q5.06,225.65,5,222l1.88,0-1.95-3.74q-2.8-49.71-3.41-83.11l-.11-5.66a1.67,1.67,0,0,1,1.86-1.92,1.66,1.66,0,0,0-1.92-1.85A55.15,55.15,0,0,1,3,112.48Q.63,87.07.31,69.1L.24,65.32A1.67,1.67,0,0,1,2.1,63.4l-2-3.74L0,52.11Q.65,20,8.85,19.85Zm5.84,9.33,0,1.89a55.59,55.59,0,0,0,2.13,13.18Q15.59,79,15.28,165.12q2.46,30.75,2.89,54.79,46.46-41.07,45.26-106.65l-.34-18.88Q56.63,59.94,22.27,30.93Z"/><path d="M152.66,19.11l1.88,0q13-.24,24.73,112.84l1.38,75.59q-.87,24.56-7.1,24.68l-1.89,0c-2.52,0-3.81-1.82-3.88-5.59q-.33-17.66.37-83.17L166,130.27l1.89,0a13.48,13.48,0,0,1-2-5.62,259.21,259.21,0,0,0-4.56-43.35l-13.22.24q-8.2.15-27.61,142.21l-5.59,3.87-3.78.07a13.47,13.47,0,0,0-2-5.63A1191.61,1191.61,0,0,1,141.71,40.08Q148.06,19.18,152.66,19.11Zm.55,30.2Q147.9,69.19,148,72.06l11.33-.2q-.07-3.61-4.19-22.59Z"/><path d="M264.35.07,268.13,0q4,15,4.22,24.47,3.42,187-6,187.13a13.57,13.57,0,0,1-5.63,2q-7.15-5.53-24.23-86.5-3.21.06-8.07-28.17l-1.89,0,.52,28.31a1.68,1.68,0,0,1-1.86,1.93A1.67,1.67,0,0,0,227.1,131q-1.48,22.28-2.22,85.09l-3.75,2-7.55.14q1.15-40.66.79-60.52L212,25.58q.95-11.35,5.46-11.43,7.88-.15,28.32,103.33,12,37.54,12.22,48.87l1.89,0L260.61,2Z"/><path d="M315.14,21.8q43.78,1.1,45.34,1.06l2,3.74.1,5.66-22.65.42q5.73,106.7,6,120.73.33,17.4-2.63,62.45l13.21-.24c2.52.33,3.81,1.57,3.85,3.7l.06,3.78c.05,2.51-1.81,3.81-5.59,3.88q-33.12,2.49-39.6,2.61l-2-3.74,0-1.89q1.77-5.7,11.22-5.87l5.66-.1-1.87-102Q327.7,88.81,325,42.39q1.83-3.15,1.72-9.47-17-2-17.1-5.35l0-1.89C309.5,23.16,311.37,21.87,315.14,21.8Z"/><path d="M401,14.57l13.21-.25q20.77-.37,20.87,5.29.09,5.09-24.4,8L411.11,54q.08,3.78,19,5.32L430.2,65q-20.77.39-20.53,13.6-1.4,26.53-1.25,137.94,1.92,1.86,28.38,3.26l.07,3.78c.05,2.51-1.19,3.79-3.7,3.84l-32.09.59q-2.71,0-5.77-5.56-1-157.77,2.21-189c-1.3-2.44-2-4.31-2-5.63Q397.83,14.62,401,14.57Z"/><path d="M477.05,1.85l5.67-.11q4.18,22.67,4.42,35.8l2,107.59a1.66,1.66,0,0,1-1.85,1.92,1.67,1.67,0,0,0,1.92,1.86l-1.71,9.47.76,41.61,15.1-.28a1.67,1.67,0,0,1,1.92,1.86l3.74-2q9.48,2.2,9.54,5.49l0,1.89q-1.79,5.69-11.22,5.87l-22.66.41q-9.44.18-10.37-50.87l-.38-20.77a1.67,1.67,0,0,1,1.86-1.92,1.67,1.67,0,0,0-1.93-1.85c0-2.52.56-3.79,1.82-3.81q-2.76-47.49-3.27-75.47l-.82-45.31Q472.53,1.93,477.05,1.85Z"/><path d="M593.29,11.05l1.89,0q13-.22,24.72,112.85l1.38,75.58q-.87,24.57-7.1,24.68l-1.89,0c-2.51,0-3.81-1.82-3.88-5.6q-.31-17.64.37-83.17l-2.13-13.18,1.89,0a13.47,13.47,0,0,1-2-5.63A259.24,259.24,0,0,0,602,73.2l-13.21.24q-8.22.16-27.61,142.21l-5.6,3.88-3.77.07a13.47,13.47,0,0,0-2-5.63A1194,1194,0,0,1,582.34,32Q588.7,11.14,593.29,11.05Zm.55,30.2q-5.3,19.89-5.25,22.76l11.33-.21q-.07-3.61-4.19-22.58Z"/></g></g></svg>